# xmcd
#
# Track frame offsets:
#	150
#	14297
#	29535
#	42720
#	59192
#	70667
#	83379
#	100862
#	112372
#	127462
#
# Disc length: 1912 seconds
#
# Revision: 0
# Processed by: cddbd v1.5.1PL0 Copyright (c) Steve Scherf et al.
# Submitted via: dBpowerAMP V4.0
#
DISCID=9507760a
DTITLE=Various Artist - Country Sweethearts
DYEAR=1996
DGENRE=Country
TTITLE0=Someday We'll Be Toghether - Lorrie Morgan
TTITLE1=Everything You Say - Lorrie Morgan
TTITLE2=Easy Love - Lorrie Morgan
TTITLE3=I Was Country When Country Wasn't Cool - Barbara Mandrell
TTITLE4=The Happiest Girl In The Whole USA - Donna Fargo
TTITLE5=Funny Face - Donna Fargo
TTITLE6=Years - Barbara Mandrell
TTITLE7=Crackers - Barbara Mandrell
TTITLE8=Don't Go Changin' - Lorrie Morgan
TTITLE9=Operator, Long Distance Please - Barbara Mandrell
EXTD=
EXTT0=
EXTT1=
EXTT2=
EXTT3=
EXTT4=
EXTT5=
EXTT6=
EXTT7=
EXTT8=
EXTT9=
PLAYORDER=
